<svg xmlns="http://www.w3.org/2000/svg" width="29" height="54" viewBox="0 0 29 54"><g><g><path fill="#fff" d="M11.897 36.189c-.016-.118-.015-.241-.051-.353-.466-1.468-.798-2.96-.887-4.502-.024-.427-.09-.851-.121-1.278-.059-.818.099-1.617.22-2.421.081-.536.354-.976.672-1.386.379-.491.741-.442 1.013.12.975 2.01 1.623 4.117 1.679 6.363a27.966 27.966 0 0 1-.118 3.449c-.072.73-.312 1.45-.53 2.159-.105.343-.079.596.144.87.74.914 1.441 1.859 2.203 2.75.345.405.798.718 1.203 1.07l.109-.078c-.046-.11-.09-.218-.137-.327-.355-.803-.749-1.593-1.052-2.416a5.95 5.95 0 0 1-.35-1.645c-.081-1.263-.045-2.528.22-3.775.186-.875.657-1.63 1.066-2.404.231-.438.56-.443.824-.008.278.458.507.956.691 1.46.654 1.794.992 3.65 1.08 5.559.051 1.08.172 2.156.251 3.235.057.77 0 1.53-.24 2.276l2.24 2.034c.026-.014.051-.03.077-.042l-.269-.74a13.506 13.506 0 0 1-.628-7.124 8.55 8.55 0 0 1 1.719-3.85c.1-.128.281-.288.407-.275.125.015.284.21.332.359.339 1.05.701 2.096.961 3.168.217.894.382 1.816.434 2.733a37.51 37.51 0 0 1 0 3.794c-.058 1.253-.483 2.427-.982 3.569-.017.04-.031.082-.066.175l1.342 1.069c.522-.356 1.017-.7 1.52-1.034.109-.072.238-.132.366-.157.248-.05.427.066.564.279.135.212.078.4-.059.559-.131.15-.301.27-.459.396-.261.209-.527.413-.867.678l1.19.732c.289.177.632.337.553.759-.081.444-.455.482-.822.564-.371.083-.667-.01-.947-.217-.327-.242-.643-.496-1.031-.797l-.652.92c-.131.183-.239.389-.398.542-.227.22-.469.212-.746.057-.259-.146-.317-.38-.264-.637.036-.17.122-.338.221-.484.265-.393.547-.773.831-1.168-.498-.511-.987-1.03-1.501-1.525-.09-.087-.318-.135-.423-.083-1.014.508-2.137.533-3.215.746a13.797 13.797 0 0 1-4.581.15c-1.676-.233-3.347-.536-4.804-1.496-.15-.1-.312-.192-.434-.32-.32-.338-.246-.703.196-.83a47.61 47.61 0 0 1 2.749-.715c1.151-.257 2.324-.301 3.502-.307 1.43-.008 2.771.32 4.061.908.327.15.659.288 1.032.373l-3.237-2.884c-.295.089-.596.173-.893.272a7.896 7.896 0 0 1-2.391.414c-.88.013-1.76.098-2.64.108-1.715.022-3.366-.251-4.898-1.097-.846-.468-1.731-.867-2.599-1.297-.081-.041-.163-.08-.237-.131-.367-.25-.378-.577-.006-.796.271-.158.557-.323.858-.394 1.294-.305 2.586-.638 3.898-.841 1.026-.16 2.072-.002 3.096.192.722.138 1.439.31 2.293.495l-1.746-2.332c-.897-.053-1.822-.054-2.732-.172-1.453-.188-2.903-.426-4.287-.942-1.574-.588-2.756-1.68-3.777-2.973a.983.983 0 0 1-.16-.295c-.109-.334.022-.54.369-.545a5.8 5.8 0 0 1 1.013.046c.934.149 1.875.279 2.792.503 1.693.415 3.331.986 4.794 1.97.129.088.272.15.554.306-.134-.251-.195-.373-.263-.492-.324-.567-.659-1.13-.97-1.703-.124-.23-.265-.381-.533-.464-2.806-.877-5.087-2.581-7.164-4.597a15.008 15.008 0 0 1-.872-.945 1.41 1.41 0 0 1-.24-.406c-.112-.28.009-.515.309-.542a3.76 3.76 0 0 1 .942.026c2.066.339 3.947 1.1 5.533 2.505.05.045.111.077.228.155-.014-.143-.002-.241-.034-.323-.252-.626-.529-1.244-.762-1.877-.108-.291-.282-.457-.571-.505-1.341-.228-2.42-.951-3.435-1.8-.277-.233-.575-.441-.851-.673-.989-.833-1.668-1.887-2.135-3.081a2.532 2.532 0 0 1-.169-.722c-.028-.36.223-.553.564-.423.483.186 1.003.346 1.407.65a49.079 49.079 0 0 1 2.982 2.445c.399.354.691.828 1.077 1.305.024-.38-.141-.65-.207-.938-.233-1.028-.738-1.83-1.647-2.431-.67-.446-1.224-1.067-1.819-1.62-.721-.67-1.261-1.475-1.697-2.35-.416-.836-.473-1.737-.412-2.647.034-.505.307-.61.728-.296 1.269.942 2.295 2.1 3.048 3.494.106.196.215.389.407.57 0-.725.022-1.45-.013-2.174-.011-.203-.156-.426-.296-.592-1.532-1.812-2.051-4.035-2.529-6.266-.097-.447-.005-.94.03-1.408.008-.111.118-.271.216-.302.089-.03.265.05.335.138.366.456.71.93 1.063 1.397a6.928 6.928 0 0 1 1.042 2.039c.046.142.12.274.249.562.065-.852.123-1.537.165-2.223.006-.104-.05-.214-.091-.316C4.15 9.3 3.669 8.16 3.223 7.007c-.429-1.104-.403-2.256-.26-3.408.016-.124.141-.273.255-.33.06-.03.256.092.306.189.367.697.736 1.394 1.055 2.114.25.565.429 1.163.693 1.895.197-.721.465-1.243.4-1.883-.146-1.434.196-2.787.931-4.014.258-.432.673-.783 1.061-1.122.28-.245.57-.084.584.308.02.587-.015 1.167-.185 1.742a19.499 19.499 0 0 1-1.11 2.904 4.597 4.597 0 0 0-.392 1.345c.469-.491.947-.974 1.408-1.474.47-.512 1.071-.823 1.689-1.095.483-.213.693-.038.636.473-.01.089-.018.182-.047.266-.408 1.174-.83 2.348-1.531 3.38-.299.443-.703.824-1.105 1.183-.521.464-1.084.882-1.634 1.31-.171.134-.268.277-.281.506-.057.966-.135 1.93-.166 2.919 1.088-1.978 2.255-3.871 4.401-4.841.278.105.34.269.276.499-.387 1.39-.706 2.807-1.389 4.092-.61 1.15-1.56 2.004-2.663 2.64-.599.346-.729.797-.725 1.382.007 1.24.128 2.466.469 3.804.077-.294.136-.46.161-.63.335-2.237 1.622-3.768 3.564-4.812.35-.19.623-.042.623.393.001.538-.025 1.095-.169 1.607a15.28 15.28 0 0 1-.859 2.349c-.565 1.204-1.367 2.227-2.578 2.868-.036.019-.057.067-.105.127l.971 2.882c.191-.711.352-1.257.483-1.81.285-1.203 1.023-2.151 1.752-3.1.291-.377.674-.315.815.135.175.556.319 1.134.377 1.713.16 1.604.151 3.21-.33 4.768-.226.729-.554 1.426-.849 2.132-.121.29-.276.566-.414.84.585 1.79 1.574 3.354 2.556 4.936zm-7.462-.234c-.112-.187-.283-.165-.399.028.139.375.398.604.717.692v.536c1.488.714 3.064 1.006 4.821 1.17-.143-.191-.19-.321-.273-.35-.109-.036-.283.062-.363.006-.694-.478-1.506-.634-2.289-.872-.137-.041-.264-.118-.396-.178.218-.08.419-.087.613-.055.658.108 1.311.248 1.971.337.165.022.28.034.384.175.117.156.261.216.468.09.096-.057.257-.008.389-.008a1.821 1.821 0 0 0-.635-.408c-.758-.29-1.514-.587-2.285-.837-.62-.203-1.262-.34-1.893-.512-.303-.083-.469.03-.53.32-.137.046-.212.016-.3-.134zm13.404 5.833c.311-.238.156-.513.118-.798h-.34c-.119.316-.042.579.222.798zm-.221-.798l.005-.014a.418.418 0 0 0-.011-.006l-.004.02zm.044-.256l.326.11c-.071-.17-.146-.268-.148-.367-.017-.85-.025-1.698-.024-2.547 0-.101.069-.201.141-.4.358 1.332.294 2.632.65 3.897l.417-.161.265.325c.015-.234.043-.38.03-.522-.077-.853-.146-1.707-.253-2.556-.102-.805-.247-1.604-.371-2.404-.03-.2-.122-.328-.336-.331l-.411.488c-.189-.061-.372-.12-.568-.181l.196-.362-.799-.258c-.033.136-.078.24-.081.348-.023.699-.038 1.399-.053 2.098-.022 1.038.263 2.003.721 2.92.035.072.16.096.248.139l.05-.236zm5.215-1.997c-.276-.421-.565.126-.783-.173l-.12.733.373.144c-.485.029-.503.356-.533.678-.13 1.427-.001 2.84.243 4.245.1.572.285 1.129.435 1.709l.38-.205c-.116-.132-.214-.247-.398-.46l.674.117.026-.08-.753-.462.029-.071.736.169c-.174-1.021-.182-2.027-.14-3.033l.154-.014.552 2.995.467-.072c.091-1.437.105-2.881.043-4.324-.012-.266-.044-.528-.233-.71l-.377.068c.037-.153.121-.191.192-.245.205-.156.298-.326.037-.517-.057-.057-.114-.115-.172-.171-.286-.102-.699-.12-.832-.321zm-8.028 5.569c-.205-.24-.389-.26-.811-.433-.201-.081-.334.033-.491-.018-1.069-.344-2.163-.326-3.263-.23-.064.007-.134-.055-.345-.151 1.11-.187 2.053-.39 3.028-.226.083.014.232.009.251-.033.146-.318.354-.066.513-.047.165.02.316.145.486.23l.234-.32c.185.162.358.269.618.046-.405-.268-.717-.632-1.213-.723-1.347-.25-2.662-.675-4.058-.65-.495.01-.904.075-1.13.554-.147-.082-.247-.136-.35-.192l-.102.318c-.221-.125-.442-.29-.626.1.186.062.354.119.523.174l-.009.108c-.206.029-.411.058-.611.088l-.334-.457-.056.693c.348.067.366.36.354.629.177.106.41.302.455.265.356-.29.154.243.345.219.116-.013.243.1.369.142 1.347.446 2.74.5 4.14.468.495-.012.989-.061 1.484-.09.352-.02.743.062.92-.386.015-.037.122-.038.242-.071-.304-.283-.304-.283-.563-.007zm4.476 4.73c-.064-.296-.309-.308-.528-.311-.103-.001-.209.107-.29.153-.245-.097-.497-.25-.767-.292-.777-.126-1.561-.203-2.341-.312-.106-.015-.202-.101-.405-.208.643 0 1.173-.074 1.672.02.495.093.964-.221 1.433.018l.097-.311.8.31c.094-.337-.11-.502-.363-.6a7.08 7.08 0 0 0-.906-.267c-1.18-.287-2.379-.183-3.572-.141-.383.014-.77.114-1.14.226-.183.054-.166.235.001.41.16-.191.334-.384.659-.298-.497.368-.497.368-.306.72l.282-.411.244.344c.066.093.134.185.287.395l-.683-.184c-.102.738-.099.77.473.896 1.377.305 2.767.219 4.152.147l.026-.37c.351.389.412.38.937-.118l.097.32.141-.135zm-6.736-19.255l-.276.35c-.064-.372-.292-.55-.649-.69-.05.157-.137.298-.131.433.017.38.072.76.111 1.142.052.515.084 1.034.161 1.546.076.51.227 1.01.291 1.523.063.502.458.88.475 1.395.001.032.135.059.345.146-.292-.326.154-.696-.315-.833.249-.36.249-.36.1-.702-.024-.055-.076-.13-.058-.167.235-.502.045-1.022.074-1.532.025-.425.003-.853.249-1.286l.236 2.56.178-.016v.644c.329-.02-.182.48.248.398.017-.04.046-.08.048-.121.089-1.513.025-3.017-.282-4.503-.063-.307-.185-.601-.279-.9-.359.068-.152-.325-.358-.417l-.526.063c.137.369.244.656.358.967zm-8.66-.295c-.011.167.022.353-.045.492-.071.147-.237.249-.362.37 1.073 1.043 3.226 2.573 3.993 2.85.387-.437-.302-.404-.33-.727-.02-.233-.371-.457-.604-.648a7.629 7.629 0 0 0-.837-.572c-.283-.174-.579-.324-.87-.484l.051-.131c.294.082.594.145.878.252.315.116.707.197.896.43.225.278.644.184.779.527l.199-.127c-.822-1-2.722-2.142-3.748-2.232zM7.146 19.16c-.225.356-.341.69.04 1.063l1.013-1.305c-.018.214-.102.392-.175.572-.263.65-.845 1.184-.733 1.977.008.057-.052.122-.074.186-.094.274-.186.549-.279.824 1.336-1.007 1.993-2.39 2.382-3.92.031-.121-.07-.276-.127-.47l-.191.345-.345-.385-.047.456c-.389-.18-.144-.443-.169-.712-.635.32-.963.843-1.295 1.369zm2.124 4.709c-.287-.053-.39.185-.455.405-.241.817-.56 1.615-.597 2.485-.011.264.029.468.29.565l-.353.38c.308-.052.464-.08.635-.11l-.239-.642c.461-.272.465-.283.524-.77.057-.48.083-.97.317-1.562.499 1.18-.028 2.232.077 3.299l.37.132c.292-.92.368-1.815.43-2.715.011-.156.024-.325-.023-.47a.812.812 0 0 0-.267-.367c-.086-.064-.237-.042-.417-.066.015-.252.006-.508-.292-.564zm-5.03 1.377c.251.078.211.208.6.144-.71-.79-1.441-1.508-2.344-2.035l-.29.45-.06-.818c-.112.31-.133.505-.238.629-.252.297-.137.542.058.782.171.208.346.42.553.589.628.51 1.271 1.002 1.913 1.496.111.086.246.143.372.215.129-.278.01-.395-.165-.545-.657-.565-1.283-1.164-1.711-1.933.541.223.718.844 1.312 1.026zm-1.235-4.687c.077-.774-.703-1.216-.534-2.017.116.133.195.202.248.288.166.268.329.537.481.815.124.226.276.375.568.32-.428-1.14-1.608-2.827-1.884-2.71-.269.225.086.269.11.365-.131.104-.235.253-.335.25-.363-.007.064-.354-.173-.448-.465.282.016.489.062.728l-.247.09c.415.863.907 1.665 1.704 2.319zm5.467-7.736c.021-.056-.08-.157-.123-.238-.008-.012-.008-.03-.017-.076.252.036.407-.038.323-.331-.124 0-.248-.02-.361.007-.08.017-.14.11-.22.145-.046.02-.113-.01-.196-.022l.271-.396c-.057-.073-.093-.131-.142-.176-.029-.028-.077-.037-.155-.071a11.78 11.78 0 0 0-1.547 2.468c.682.18.687.179.976-.24.081-.117.156-.238.234-.36.035.018.071.035.107.05l-.457 1.192c.735-.633.927-.916 1.307-1.952zm-5.981-.64c.307 1.008.677 1.994 1.018 2.975l.387-.05-.126.552c.335-.44.341-.511.125-.762-.056-.064-.19-.132-.18-.171.115-.438-.245-.75-.287-1.14-.017-.15-.025-.301-.037-.451l.066-.018.585 1.28c-.078-.993-.348-1.921-.704-2.788h-.612l-.058-.56c-.369.372-.283.786-.177 1.134zm6.6-6.216a91.37 91.37 0 0 1-.663.252l.065-.342c-.617.105-1.406 1.029-1.694 1.969l.357.289c.156-.29.284-.557.441-.808.147-.238.028-.64.492-.776-.091.943-.584 1.646-.977 2.394 1.023-.716 1.601-1.721 1.979-2.978zM7.322 2.483c-.582.19-.823.646-.947 1.194-.005.024.036.059.054.088l.331-.39-.13 1.01c.417-.521.588-1.014.692-1.902zM4.306 8.08c.013-.062.052-.132.035-.185a2.64 2.64 0 0 1-.118-1.2.69.69 0 0 0-.05-.331c-.098-.264-.274-.326-.569-.158L4.22 8.1zm22.055 43.538c.259.449.612.549.994.592.178.02.306-.044.304-.293l-1.298-.3zm-9.423-16.941c.402.33.402.33.626 0"/></g></g></svg>