<svg xmlns="http://www.w3.org/2000/svg" width="94" height="109" viewBox="0 0 94 109"><g><g><path fill="#fff" d="M60.176 89.904a8.048 8.048 0 0 1-.986-.297c-.91-.343-1.022-.784-.401-1.53 1.036-1.244 2.08-2.481 3.112-3.73.168-.205.285-.454.357-.804-4.734 2.452-9.592 3.503-14.781 1.712-.48 1.384.107 2.495.704 3.415.45.693.57 1.317.558 2.043-.066 3.584-.125 7.169-.237 10.752a24.33 24.33 0 0 1-.36 3.35c-.351 2.048-1.81 3.938-4.534 4.043-1.811.07-3.62.15-5.384-.516-1.374-.52-2.517-1.312-3.503-2.365-2.125-2.268-1.517-6.086 1.203-7.581 1.018-.558 2.092-.486 3.148-.166.666.203 1.036.729 1.076 1.435.024.44-.013.884-.007 1.326.005.343.009.69.056 1.028.093.665.544 1.047 1.142 1.208.618.167 1.099-.184 1.309-.71.32-.807.694-1.656.73-2.5.102-2.403-.011-4.814.065-7.218.075-2.388.275-4.772.425-7.157.02-.343.084-.683.093-1.026.03-1.258-1-2.296-2.27-2.33-2.304-.062-4.615-.042-6.908-.235-2.444-.207-4.683-1.041-6.458-2.848-.378-.386-.74-.761-1.37-.73-2.358.114-4.508-.636-6.785-1.814l1.21 5.063c1.526-.246 2.919-.466 4.31-.698 1.023-.17 1.36-.045 1.64.944.789 2.78 1.562 5.568 2.25 8.375.782 3.19 1.472 6.404 2.187 9.61.095.428.163.877.133 1.309-.04.574-.666.81-1.073.41-.273-.268-.48-.621-.655-.967a1587.83 1587.83 0 0 1-5.312-10.5c-.302-.604-.496-1.263-.775-1.987-2.003.449-3.957.878-5.908 1.327-1.245.286-1.41.138-1.536-1.143-.354-3.611-.772-7.216-1.113-10.828-.133-1.412-.13-2.836-.19-4.291-.18-.086-.344-.183-.522-.248-3.13-1.121-4.84-3.705-4.747-6.98.068-2.414.725-4.558 2.513-6.24.557-.523.517-1.144.518-1.761.006-2.85-.028-5.7-.037-8.548-.002-.523.043-1.045.065-1.525.649-.16.79.167.798.528.068 2.779 1.195 5.346 1.593 8.06.055.374.23.73.368 1.155 1.37-.286 2.644-.47 3.809-1.372 2.29-1.776 5.017-2.706 7.856-3.115 1.229-.177 2.537.118 3.799.275.97.12 1.945.294 2.883.565 1.21.35 2.387.82 3.687 1.276 1.847-1.454 3.733-3.043 6.222-3.854.217-2.76.135-5.53.192-8.5-6.837 1.118-13.26 2.839-19.081 6.394-.26.647.224 1.486-.55 1.908-.245.134-.557.257-.823.228-.866-.094-1.134-.903-.777-2.222-4.278-6.066-16.726-5.435-20.66.139.116.32.36.682.342 1.03-.021.396-.184.87-.455 1.144-.381.385-.975.333-1.33-.05a1.746 1.746 0 0 1-.421-1.147c.04-1.018.262-2.028.309-3.045.22-4.723 1.507-9.17 3.474-13.43.447-.97 1.098-1.862 1.752-2.716 2.942-3.84 6.226-7.337 10.26-10.068 1.787-1.21 3.483-2.578 5.359-3.625 1.96-1.096 4.063-1.954 6.15-2.805 3.92-1.597 7.963-2.771 12.205-3.118.977-.08 1.964-.036 2.946-.045.914-.008 1.13-.18 1.18-1.082.043-.781.028-1.565.035-2.347.017-1.917.027-3.833.049-5.75.01-.79.06-1.575.766-2.174.855-.022 1.208.509 1.306 1.255.199 1.506.362 3.018.539 4.529.109.925.185 1.855.33 2.774.347 2.18.712 2.93 3.354 3.07 2.599.135 5.187.295 7.773.588 3.56.404 6.886 1.509 10.02 3.21 1.423.774 2.84 1.56 4.214 2.416 2.262 1.407 4.228 3.18 6.077 5.09.785.812 1.6 1.595 2.366 2.425 2.707 2.937 5.02 6.149 6.826 9.723.352.696.828 1.33 1.26 1.983 1.949 2.94 2.96 6.275 4.073 9.57.168.498.368 1 .649 1.44.33.519.413.993.042 1.49-.334.45-.811.563-1.317.385-.578-.204-.838-.654-.77-1.271.026-.234.082-.465.138-.767-.44-.394-.833-.85-1.318-1.16-3.138-2.003-6.48-3.491-10.246-3.79-3.778-.3-6.931.964-9.391 3.877-.411.487-.817.978-1.253 1.502.058.268.169.546.165.824-.005.54-.293.94-.808 1.109-.51.167-1.073.088-1.301-.4-.514-1.1-1.514-1.468-2.508-1.872-1.633-.664-3.281-1.294-4.908-1.975-1.58-.66-3.113-1.436-4.716-2.03a14.368 14.368 0 0 0-3.27-.767c-1.543-.183-3.107-.2-4.665-.29v7.988c2.893.259 5.696.878 7.552 3.29 5.838-1.357 10.923-.572 14.885 4.205l4.413.728c1.319-1.64 2.748-3.32 4.066-5.084 1.31-1.753 2.48-3.611 4.173-5.08-.133 2.352-1.262 4.38-2.02 6.514-.75 2.115-1.664 4.173-2.538 6.335.196.282.435.649.694 1 1.557 2.114 1.838 4.526 1.504 7.017-.208 1.557-1.077 2.802-2.341 3.776-1.854 1.429-3.944 2.143-6.347 2.117L67.13 84.22l6.09.188c.099.003.205-.01.293.025.395.148.943.202 1.142.49.33.484-.128.888-.47 1.253-3.701 3.927-7.437 7.823-11.08 11.803-2.293 2.504-4.75 4.828-7.25 7.113-.384.35-.772.943-1.357.52-.662-.477-.19-1.06.09-1.558.48-.854.976-1.7 1.49-2.533a2194.75 2194.75 0 0 1 5.656-9.12c.355-.57.757-1.111 1.265-1.85-1.112-.253-1.97-.443-2.824-.648zM9.46 36.297c-.267.13-.446.2-.604.305-.054.035-.053.152-.105.326.356.094.705.186 1.052.28l-.343-.911zm.343.91l.015.04.007.002.02-.03-.042-.011zm-.423.699c-.256.352-.183.61.167.794l1.156-1.167c-.15-.526-.566-.25-.878-.284-.147.22-.29.444-.445.657zm1.323-.373l.002.009.04-.003a1.29 1.29 0 0 1-.018-.03l-.024.024zm1.669.289c.068.01.153-.098.278-.185l-.42-.92-.25.053c-.014.206-.03.41-.05.683l-1.185.086c.424.696 1.082.205 1.627.283zm66.696 17.73l.04-.047.02-.03a1.87 1.87 0 0 0-.06-.006zm.619-.033c.26-.635.758-1.191.667-1.962l-1.226 1.919c.219.027.537.096.559.043zm-1.594 1.156l.975.28v-1.403l-.975 1.123zm-2.798-16.467c-.59-.011-1.222-.165-1.721.642l1.122-.292c.719 1.097.714 1.092-.162 1.9-.078.072-.081.224-.107.351.176-.016.363-.006.52-.07 1.675-.675 3.426-.862 5.2-.73 2.462.183 4.85.733 7.095 1.788 1.388.652 2.75 1.358 4.315 2.136-1.167-2.598-1.795-5.195-3.3-7.413-.494-.73-1.074-1.418-1.457-2.204-.93-1.905-2.104-3.645-3.285-5.395-2.05-3.038-4.655-5.57-7.26-8.091-2.193-2.123-4.774-3.718-7.413-5.271-4.711-2.775-9.84-3.831-15.164-4.181-2.156-.143-4.29-.263-6.364-.903-.705-.218-1.168-.544-1.251-1.394-.09-.908-.392-1.795-.61-2.732-.088.122-.178.189-.18.259-.017.685-.012 1.37-.026 2.056-.027 1.303-.158 1.43-1.424 1.477-.687.025-1.396-.032-2.055.119-3.201.728-6.45 1.324-9.564 2.329-4.145 1.338-8.285 2.788-11.851 5.435-.077.058-.182.078-.26.136-2.25 1.66-4.705 3.109-6.694 5.039-2.49 2.415-4.617 5.208-6.85 7.879-.493.589-.82 1.333-1.148 2.04-1.478 3.18-2.416 6.524-2.916 9.988-.127.88-.411 1.768-.17 2.629.959-.633 1.827-1.243 2.73-1.797 1.879-1.152 3.99-1.587 6.128-1.952.8-.135 1.602-.591 2.369-.521.914.083 1.416-.678 2.309-.722l1.28 1.066.556-.346c-.622.019-.486-.482-.494-.884l-.92-.213c.719-1.015-.452-1.405-.48-2.194l-.29.077c.096.446.19.892.294 1.369-.414.28-.892.607-1.37.932l-.172-.191.636-1.094c-1.491 0-1.468.934-1.337 1.867-1.168-.103-1.168-.103-1.551-1.092l.715-.79c-.373-.088-.751-.04-.825.136-.231.545-.347 1.138-.526 1.782-.397-.21-1.123-.381-1.161-.65-.136-.96-.83-.35-1.236-.575-.086-.454.064-1.11-.878-1.121l-.706 1.13-.38-.061.096-1.268c-.755-.587-.967-1.222-.683-2.258.037-.133.362-.187.639-.318l.58 2.069.445-1.036.537 1.5 1.013-1.046c-1.253-.24-1.254-1.183-1.47-1.996-.153.593-.193.646-.627.769l-.381-2.98h2.122l-.908-1.731c.648-.59.899.138 1.37.285.16-.68.49-1.252 1.214-1.851v1.519c.194-1.131 1.273-1.422 1.893-2.077.29-.306.857-.14.943.289.137.686.685.732 1.153 1.08l.482-.777c-.877-.288-1.092-1.398-2.032-1.324-.176-.626.342-1.258-.327-1.663.217-.306.433-.612.655-.914.01-.013.079.019.159.04l.406.894-.64 1.225c.47-.025.899.08 1.067-.082.573-.556.824-.526 1.09.265.13.383.63.232.8-.24.059-.165.07-.347.086-.434.336-.108.567-.172.788-.26.206-.08.403-.184.603-.278-.434-1.13-.884.078-1.324-.15-.098-.171-.208-.367-.306-.541-.66-.315-.338 1.164-1.123.588-.037-.535.528-1.076-.05-1.58-.76.38-.76.38-1.407-.561.527-.105 1.028-.235 1.537-.284.15-.016.403.158.47.308.133.29.168.627.266 1.04.4-.084.863.475 1.273-.246l-1.092-.61c.37-.27.653-.474 1.036-.751l.474 1.099 1.39-.882c-.54-.244-1.093-.723-1.52-.63-.645.143-1.18.29-1.806-.215.11-.311.23-.642.366-1.017l.832.434.196-.832 1.766.49c-.043-.248-.01-.522-.13-.67-.434-.526-.444-.663.066-.93.259-.133.516-.274.82-.435-.038.484.116.9.819.655-.648-.844-.658-1.138.028-1.513a624.028 624.028 0 0 1 7.029-3.774c.72-.381 1.46-.742 2.222-1.03.68-.257 1.407-.39 2.107-.597 1.91-.566 3.81-1.17 5.73-1.703.519-.145 1.106-.397 1.702.099-.246.267-.456.534-.703.76-3.182 2.912-5.618 6.409-7.855 10.054-1.74 2.834-2.617 6.03-3.513 9.179-.871 3.056-1.427 6.206-2.06 9.327-.245 1.212-.218 2.457-.093 3.81l1.594-.936.043-.826c.35.169.73.434.799.37.279-.264.463-.628.692-.972l1.373-.068-.058-.656c.384-.315.59.754.92-.042.04-.097.266-.198.377-.172 1.166.266 1.81-.356 2.29-1.292.036-.07.163-.09.343-.183l.049 1.016 1.537-.507.09-1.312.985.854c.829-.118 1.554-.305 1.716-1.235 1.004.414 1.004.414 2.159.162.1-.506.328-.976.966-1.044v.924c.768-.116 1.574.115 1.65-.976 0-.015.425-.066.59.02.133.069.17.32.235.455l2.806-.16-1.023-.593c.199-1.19.952-.007 1.306-.35v-.492c.307.073.767.049.89.24.247.382-.204.547-.454.76-.077.065-.063.235-.096.385.62.186 1.137.15 1.744 0 .49-.121 1.119.423 1.662.379.918-.077 1.793-.043 2.687.157.4.09.968-.154 1.228.05.752.589 1.314.263 1.874-.252.422.486 1.088.552 1.189 1.293.045.327.496.347.844.093.376-.276.795-.493 1.252-.77.316.336.604.64.907.96-.611.394-.611.394-1.254-.136-.333.509.055.739.408.887 1.286.535 2.465 1.602 4.03.889.392.778.387.789 1.663 1.432.718.36 1.458.677 2.232 1.033.005-2.011-.465-3.794-1.022-5.571-.835-2.664-1.461-5.401-2.428-8.015-1.444-3.9-3.16-7.675-5.321-11.271-1.43-2.378-3.255-4.268-5.291-6.044a5.493 5.493 0 0 1-.875-.942c-.077-.11.07-.378.172-.823l.647.957.613-.663.518.76.616-.59.395.884.84-.608.316.855c.384-.171.714-.815 1.173-.145 1.01-.013 1.92.419 2.836.73 2.789.95 5.609 1.854 8.08 3.54.452.31 1.145.52 1.309.94.267.682.884.473 1.283.746.538.368.583 1.146 1.272 1.33.055.016.01.367.035.559.008.059.088.108.129.153.172-.153.339-.301.612-.546.272.874.875 1.208 1.81 1.307-.451.31-.728.432-.906.64-.24.28-.402.625-.59.93l-.875-.205c-.232.234-.451.452-.76.759l-.3-.851c-.763.418-.516.858-.071 1.373.31-.082.67-.144 1.004-.276.37-.145.715-.355 1.178-.591l.343 1.303c-.054-1.57 1.772-.738 2.086-1.94l.855 1.382-1.197.303-.211 1.414c.347.16.62.284.939.429-.06-.561-.106-1.014-.152-1.457l.964.124c-.051.983-.014 1.016 1.586 1.35-.347.227-.597.39-.886.582l.562.974.919-1.124c.728.58.842 1.333.844 2.2l.31-.651.297.192-.111.717c.32.133.652.269.92.379-.255 1.018-.976-.21-1.438.482-.296.442-1.103-.67-1.641.162l.08 1.086-1.498.172c.127.849.24 1.609.354 2.36l1.022-.057c.048.22.1.566.143.565.65-.013.676.653.965.97.744-.268.443-.755.322-1.112-.381-1.124-.444-2.236-.195-3.144l2.319-.737c.02.178.157.578.06.647-.51.361-.259.868-.337 1.304l1.32.425c-.155.27-.491.7-.427.77.492.545.134 1.162.217 1.729-.705-.191-.461-.95-.646-1.204l-2-.49c.887 1.619.785 2.03-.61 3.11-.301.234-.563.519-.862.797-.413-.046-.712-.795-1.24-.244l-.223-.485c.193-.501.42-.992.552-1.508.033-.127-.222-.453-.38-.48-.357-.06-.5.189-.425.542-1.156.035-1.92.579-2.075 1.479zm-.868 2.601l-.046.005-.051.053a.974.974 0 0 0 .086-.012.692.692 0 0 0 .01-.046zm-.788-.828l-.78.237-1.148-1.71c-.237 0-.431-.013-.623.004-.226.02-.45.067-.675.103l-.073.82c.219-.141.453-.392.564-.346.482.199.929.484 1.389.738-.142 1.096 1.149.843 1.357 1.74l.68-.7c-.62.054-.341-.68-.691-.886zm-55.952 1.482c.038 0 .08-.004.124-.01l.008-.079-.053.04a88.83 88.83 0 0 1-.08.05zm1.188-.867c-.331-.362-.684-.438-.935.013-.118.212-.098.501-.12.765l1.055-.778zm-1.682-.017l.04.01a.621.621 0 0 0 .008-.073 2.9 2.9 0 0 1-.05.036l.002.027zm.384-1.642c-.926.379-.306 1.036-.336 1.58.583-.431.793-.938.336-1.58zm64.517-5.17l-.036-.012-.021.014.052.025a.843.843 0 0 0 .005-.027zm-1.172-.526c-.06-.026-.16.037-.237.058l.134 1.264c.476-.311.848-.554 1.218-.794-.37-.18-.739-.362-1.115-.528zm-11.184 8.816c-.338-.28-.733-.45-1.243-.342l2.153 1.764.448-1.38c-.448.328-.89.343-1.358-.042zm1.358.041l.076-.058.004-.022-.046-.023-.034.103zm.903.335c.53-.642-.123-.89-.373-1.34-.155.226-.28.372-.362.539-.057.115-.064.255-.088.386l.823.415zm3.797-12.478c-.273.003-.577.192-.808.118-.24-.078-.411-.374-.612-.574l-.207.106.32 1.212-1.271-.082.358 1.633c.223-.45.295-.811.442-.846.378-.087.79-.03 1.015-.03.149-.357.193-.71.39-.886.327-.291.44.16.664.287.5.285.984.284 1.2-.38-.517-.135-.93-.566-1.491-.558zm1.492.558c.017.005.034.01.052.013l.025-.028-.066-.02a1.633 1.633 0 0 1-.011.035zm1.6.44c-.086-.46.042-1.04-.771-1.305l-.752.85c.504.151 1.007.302 1.523.455zm-39.64 71.398l-1.175-.75-.08-.654c-.52.409-.824.48-1.268.334l.367-.518-.84-.288c.86-.367.86-.367 1.116-1.526 1.219-.696 1.219-.696 1.087-1.413-1.572-.128-2.681.42-3.268 1.616-.37.755-.313 1.015.343 1.67-.153.146-.462.333-.436.43.15.555.242 1.225.612 1.6.71.72 1.527 1.4 2.42 1.863 1.862.965 3.92.83 5.912.589 1.228-.15 2.16-.98 2.522-2.212.245-.84.404-1.727.436-2.598.13-3.627.199-7.257.287-10.886.012-.478.002-.958.002-1.42-1-.334-1.128.417-1.426.905-.01.015.199.166.312.258l.388-.744c.004 1.037.004 1.037-1.046 1.398l.06.592c.428-.48.428-.48.946-.137-.835 1.198-.835 1.198-.04 1.989-.226.448-.694 1.043-.577 1.2.454.605-.165 1.189.068 1.657.297.593.323 1.078-.032 1.608.533.447.128.726-.182.95l.716.754-1.404-.09 1.08.71c-.157 1.43-.264 2.753-1.171 3.796l.828.718c-.52.037-.781.068-1.043.07-.415.003-.865-.12-1.24-.001-1.172.37-2.301.508-3.086.223-.718-.26-1.326-.802-2.146-.82-.074 0-.141-.326-.211-.5l1.17-.373zM67.122 89c.05.542-.293 1.407-.745 1.589-.82.329-1.167.957-1.35 1.617-.415 1.086-1.688-.314-2.02.742l.72.49c-.083.12-.167.24-.25.362-.226 0-.454-.02-.678.003-.648.065-.72.37-.346.862.029.038-.055.162-.074.215-.388.14-.755.275-1.291.47.389.298.58.445.772.59.145.11.292.218.439.327-.447.098-.81-.006-1.175-.022-.374-.017-.522.322-.32.704.076.143.224.246.526.564h-1.37v1.079c-1.112.333-1.103 1.424-1.568 2.195 4.728-5 9.743-9.716 14.39-15.241-1.953 0-3.57-.008-5.186.003-.793.005-1.568-.004-2.13-.86l.922-1.521c-.422.352-1.078.375-1.21 1.062-.058.3-.538.515-.813.782-.154.15-.407.337-.4.495.03.518-.863.486-.603 1.092-.328.057-.663.093-.981.185-.103.03-.163.205-.297.388l1.715.67-2.202.57c.48.564 1.012.58 1.475.293.76-.472 1.42-.33 2.033.19.693-.54 1.467-.88 1.569-1.904l1.037.333-.742 1.008 1.813-.647c-.044 1.06-1.15.824-1.66 1.316zm6.407-17.361c-.178.01-.357.02-.602.036.252.49.747.919.166 1.422l-.388-.434c-.857.54-1.938.604-2.888 1.5.488.039.807.164.983.056.273-.166.387-.601.714-.007.1.18.633.205.953.17.73-.076 1.483-.143 2.17-.377 1.36-.462 2.66-1.141 3.468-2.361 1.436-2.17 1.167-4.504.16-6.721-1.281-2.82-3.85-4.061-6.633-4.928-.232-.072-.521.04-.79.067.155.67.328 1.236.408 1.814.102.737-.04.893-.831 1.078-.216.05-.444.05-.573.063l-.54-2.11-2.35-.953 1.249-1.282c-.563-.437-1.022-1.061-1.57-1.152-.726-.12-.764-.824-1.372-1.061-2.136-.836-4.302-1.373-6.597-1.212-2.942.206-5.516 1.146-7.405 3.61-.722.944-1.21 2.139-2.385 2.687l-.781-.888 1.2-.83c-.108-.227-.206-.397-.271-.58-.08-.22-.131-.45-.19-.66-1.343.049-1.533-.157-1.554-1.6l.308-.48 1.04-.815c.637.87.637.87 1.26.469-.612-.906-.621-1.01-.172-1.606.188.268.372.769.577.778.56.024 1.173-.064 1.68-.294.33-.148.51-.626.846-1.073-2.992-1.267-5.852-1.533-8.798-.781-.372.095-.712.325-1.063.5-1.816.913-3.354 2.215-4.88 3.525-2.403 2.06-3.491 4.793-3.83 7.868-.116 1.07-.168 2.149-.243 3.225-.04.548-.056 1.1-.805 1.269-.498-.437-1.003-.855-.95-1.672.017-.238-.197-.632-.405-.72-.816-.344-.763-1.047-.826-1.716-.031-.328-.045-.658-.065-.96-.628-.17-1.17-.314-1.711-.463-.448-.123-.568-.462-.582-.867-.346-.072-.682.603-1.103.042.695-.435 1.29-1.002 1.99-1.193.9-.246.725-1.287 1.507-1.474-.331-.834-1.028-.715-1.626-.755.139-.42.307-.712.312-1.01.007-.276-.16-.557-.265-.884 1.127-.058.248 1.454 1.33 1.312v-.634c.793.012.93-.962 1.759-1.185l-.532 1.247c1.065.317 1.94.124 2.555-.548.153-.167.297-.463.463-.477.813-.064 1.082-.87 1.924-1.123-.346-.2-.5-.314-.67-.382-2.3-.912-4.736-1.265-7.164-1.423-3.042-.196-5.764 1.002-8.25 2.64-1.421.939-2.378 2.294-2.572 4.083-.051.48-.197.98-.857 1.082-.771-.273-1.15-1.367-2.196-1.182l.469-.504c.815-.45 1.362-1.172 2.227-2.015-.497.042-.684.038-.861.075-.368.079-.725.185-.6.696-.417.019-.882-.078-1.242.075-1.965.83-3.345 2.208-3.732 4.384a15.821 15.821 0 0 0-.261 2.482c-.032 1.864.909 3.285 2.288 4.409.75.61 1.64 1.033 2.513.456l-.438-1.517c-.28.215-.576.445-1.013.784l-.331-2.978 1.55-.862c-.24-.336-.4-.561-.58-.816l1.288-.764c.13.863.262 1.585.343 2.312.177 1.586.653 3.068 1.488 4.426.279.452.686.834.913 1.306 1.029 2.139 2.9 3.113 5.05 3.676.403.105.89-.108 1.34-.173l-.045-.285-1.183.194c.255-.804.255-.804-.292-1.297l-.564.689a1.368 1.368 0 0 1 .033-.893c.079-.213.234-.4.355-.597l-.183-.15-.615.466c-.441-.432-.823-.887-.883-1.694l.815.618c.058-.465.1-.797.14-1.13.069-.004.137-.01.205-.015l.4.863.4-.748c.365.468.483.932 1.048.99.275.029.558.375.758.638.474.623.883 1.295 1.35 1.924 1.343 1.804 2.96 3.26 5.178 3.897 2.879.827 5.837.687 8.776.604.708-.021 1.6.109 2.122-.695.047-.073.27-.107.363-.06.873.447.839-.367 1.03-.678.355 0 .808.11.895-.022.178-.268.157-.667.215-.994l1.117-.3c-.74-1.233-1.32.185-2.241.078.343-.26.505-.378.663-.503.168-.132.332-.27.514-.42l-.741-.652.132-.21 1.354.559.627-1.383c.783-.018 1.503.166 2.034-.597.245-.352.834-.411 1.156-.013.16.199.13.63.056.923-.084.32-.296.619-.493.897-1.547 2.172-3.228 4.186-5.975 4.9-.073.019-.12.147-.22.28.725.97 1.746 1.498 2.873 1.86a22.22 22.22 0 0 0 1.838.523c.619.142 1.317.433 1.862.27.583-.176 1.123.314 1.632-.08 2.553.717 4.797-.36 7.074-1.23.22-.083.57-.232.586-.38.083-.831.647-.158 1.04-.398l.382-1.013.43.527c.41-.376.84-1.074 1.2-1.04.867.083 1.028-.238 1.005-.946-.001-.021.266-.09.399-.07.996.143.558-.717.708-.99.35-.066.7-.024.84-.176.864-.944 1.378-2.083 1.843-3.343-.701-.008-1.252-.066-1.251-.931.55.135 1.1.536 1.495-.156l-.344-1.055c.394-.03.674-.05.955-.07a86.073 86.073 0 0 1-.264-.53l.51-.967.809-.37-1.207-.708c.572-.23 1.044-.42 1.738-.697l-1.203-.235 1.66-.526.75 1.608.249-.086c-.08-.323-.162-.645-.31-1.234.496.217.815.28 1.03.466.436.374.816.813 1.219 1.225 0 .149.002.297.003.446zM28.66 63.174a.261.261 0 0 1 .039.01l.021-.01a2.411 2.411 0 0 1-.061-.038v.038zm2.976.2c-.796-.275-1.382-.562-1.998-.652-.278-.041-.609.282-.918.451.87.517 1.792.322 2.916.2zm-13.46 16.28l.908.209-.18.32c-1.133-.317-.614 1.018-1.305 1.136.349.529.74 1.013 1 1.56.13.27.106.917.002.952-.758.258-.472.559-.168.98.087.12-.105.44-.195.76l-.63-.598c.378.96.287 1.942.3 2.912a.175.175 0 0 0 .069.125c.114.074.238.134.436.242l.202-.902.933.63-.244-1.48c1.14.448.36-.886.91-.915.44.236.82.557 1.245.635.453.084.972-.276 1.395.18.638-.847.76.592 1.294.347l-.492-1.603 1.969-.361.656 2.36h-1.1l.38.697c.284-.08.509-.141.838-.232.13 1.16.824 2.17.54 3.373l.672.327c-.384.75-.376.742.215 1.306.098.095.102.289.146.439.073.245.07.629.226.709.343.174.227.41.308.66.28.866.713 1.683 1.088 2.518-.905-4.92-1.898-9.787-3.492-14.665-.5.216-.846.457-1.221.51-1.105.16-2.221.238-3.331.363-1.005.114-1.186.026-1.488-.94-.305-.975-.57-1.963-.891-3.086l-.995.533zM14.195 37.9c-1.631.215-1.648.23-1.824 1.583-.781.303-1.127-.557-1.707-.735-.903.713-.89 1.687-.967 2.617-.003.044.306.114.485.178.199-.626.357-1.168.554-1.695.032-.085.242-.103.403-.164l.263 1.117 1.252-.272c-.11-.902.219-1.658.822-2.355.769.406.502.848.157 1.312-.102.138-.157.31-.21.419.382.27.687.484 1.054.74-.096-.922-.19-1.833-.282-2.745zm32.214 10.13l-.395.872c-.247-.138-.428-.24-.61-.34v2.569l1.144-.078c.04-.83.08-1.558.113-2.287.01-.237 0-.474 0-.71a19.703 19.703 0 0 0-.252-.025zm30.514-12.113c-.146-1.05-.87-1.096-1.636-1.161l-.578.68c.31.386.555.688.838 1.038l1.376-.557zm-64.47-2.095c.23.794.926.382 1.365.669l.39-.867-1.491-1.143c-.654.383-.397.877-.263 1.34zm59.06-4.248c.034.07.066.143.098.214l.906-.175c.682.975.682.975 1.323 1.072.345-.997-1.015-1.032-.95-1.952-.533.327-.954.583-1.376.84zm-1.348 2.965c-.801-.714-.964.443-1.51.21l-.333-1.403c-.29.62-.447.963-.614 1.322l.789.665 1.668-.794zm-51.59 8.297c.025-.264.054-.55.08-.835l.763.073.067-.192-1.15-.788-.44 1.23.68.512zm54.582-1.63l.756-.211c-.197-.485-.401-.988-.66-1.621-.403.883-.487 1.363-.096 1.832zm.756-.211l.09.22.418-.362-.508.142zM23.506 32.41c.503-.637-.122-.88-.484-1.292.472.636-.255.8-.46 1.149.298.319.599.582.944.143zm-.484-1.292zm48.524 6.359c-.074.483-.11.97-.162 1.457.285-.251.335-.56.47-.826.143-.28.366-.518.598-.834-.827-.024-.872-.026-.906.203zM10.81 35.1c.062-.026.08-.156.167-.338l-1.537-.42.545 1.038c.289-.095.563-.172.825-.28zm34.218 53.8c.33-.13.717-.198.97-.42.122-.107.095-.627-.042-.735-.232-.185-.652-.334-.578.329.016.149-.343.339-.53.51l.18.317zm22.19-58.978l-.078-.037c.027.02.053.032.078.037zm1.06-.56c-.545-.26-.748.63-1.06.56.715.34.727.31 1.06-.56zm-43.356 5.794l1.06-1.161c-1.451.42-1.451.42-1.06 1.16zm-6.08.868l.222 1.8c.578-1.164.578-1.164-.221-1.8zm-2.94.7c.186.178.56.228.364.646-.052.109.053.293.086.44.328-.657.192-1.21-.228-1.703-.275.143-.587.264-.222.617zm4.188 50.714l1.117.123-.544-1.31c-.28.577-.407.842-.573 1.187zm-.545-58.992c.086-.014.169-.045.413-.11l-.986-.471-.882.81c.646-.101 1.05-.162 1.455-.23zm49.244-.355c-.452-.48-.457-1.072-1.48-1.068.587.346.563 1.055 1.48 1.068zm3.216 3.099c.059.873.616.682 1.249.807-.27-.771-.727-.73-1.25-.807zM16.03 32.489l1.092.07c.03-.09.063-.18.094-.271l-1.1-.598a281.9 281.9 0 0 1-.086.799zm3.054 2.697c-.145-.226-.286-.423-.403-.633-.127-.23-.232-.472-.456-.934.205 1.499.205 1.499.859 1.567zm-1.008 9.233c.57.238 1.034.429 1.547-.25-.596-.005-1.086-.421-1.547.25zm-5.765-8.396c.052-.052.104-.105.155-.16l-.383-.872-.903.28 1.13.752zm56.902 11.252l.757-1.114c-.953.017-.953.017-.757 1.114zm-47.67-4.45c.252-.382.776-.628.51-1.46-.334.497-.576.857-.82 1.216.104.08.207.162.31.244z"/></g></g></svg>